<?xml version="1.0" encoding="UTF-8" standalone="no"?>
<svg
   version="1.1"
   width="990px"
   height="259px"
   style="shape-rendering:geometricPrecision; text-rendering:geometricPrecision; image-rendering:optimizeQuality; fill-rule:evenodd; clip-rule:evenodd"
   id="svg136"
   sodipodi:docname="final-logo.svg"
   inkscape:version="1.3.2 (091e20e, 2023-11-25)"
   xmlns:inkscape="http://www.inkscape.org/namespaces/inkscape"
   xmlns:sodipodi="http://sodipodi.sourceforge.net/DTD/sodipodi-0.dtd"
   xmlns="http://www.w3.org/2000/svg"
   xmlns:svg="http://www.w3.org/2000/svg">
  <defs
     id="defs136" />
  <sodipodi:namedview
     id="namedview136"
     pagecolor="#ffffff"
     bordercolor="#000000"
     borderopacity="0.25"
     inkscape:showpageshadow="2"
     inkscape:pageopacity="0.0"
     inkscape:pagecheckerboard="0"
     inkscape:deskcolor="#d1d1d1"
     inkscape:zoom="0.53881346"
     inkscape:cx="395.31307"
     inkscape:cy="139.19474"
     inkscape:window-width="1312"
     inkscape:window-height="449"
     inkscape:window-x="0"
     inkscape:window-y="37"
     inkscape:window-maximized="0"
     inkscape:current-layer="svg136" />
  <g
     id="g1">
    <path
       style="opacity:1"
       fill="#fefefe"
       d="M -0.5,-0.5 C 329.5,-0.5 659.5,-0.5 989.5,-0.5C 989.5,85.8333 989.5,172.167 989.5,258.5C 659.5,258.5 329.5,258.5 -0.5,258.5C -0.5,172.167 -0.5,85.8333 -0.5,-0.5 Z"
       id="path1" />
  </g>
  <g
     id="g2">
    <path
       style="opacity:1"
       fill="#b39895"
       d="M 290.5,21.5 C 225.166,21.3333 159.832,21.5 94.5,22C 92.8455,22.6077 91.1789,23.1077 89.5,23.5C 90.347,22.0337 91.6803,21.2004 93.5,21C 159.335,20.1679 225.001,20.3346 290.5,21.5 Z"
       id="path2" />
  </g>
  <g
     id="g3">
    <path
       style="opacity:1"
       fill="#5e2b2b"
       d="M 290.5,21.5 C 293.891,22.5293 296.557,24.5293 298.5,27.5C 298.5,27.8333 298.5,28.1667 298.5,28.5C 295.714,26.8874 293.047,25.054 290.5,23C 225.332,22.168 160.332,22.3346 95.5,23.5C 93.7816,24.224 91.9483,24.8906 90,25.5C 89.1375,28.543 89.9709,29.543 92.5,28.5C 92.5,77.1667 92.5,125.833 92.5,174.5C 91.8333,142.833 91.1667,111.167 90.5,79.5C 90.5,63.5 90.5,47.5 90.5,31.5C 89.5,31.5 88.5,31.5 87.5,31.5C 87.5,47.5 87.5,63.5 87.5,79.5C 87.1668,111.507 87.5001,143.507 88.5,175.5C 90.2766,177.893 92.6099,179.56 95.5,180.5C 127.493,181.5 159.493,181.833 191.5,181.5C 158.669,182.664 125.669,182.831 92.5,182C 90.3333,179.833 88.1667,177.667 86,175.5C 85.3333,126.5 85.3333,77.5 86,28.5C 86.2233,26.1192 87.39,24.4525 89.5,23.5C 91.1789,23.1077 92.8455,22.6077 94.5,22C 159.832,21.5 225.166,21.3333 290.5,21.5 Z"
       id="path3" />
  </g>
  <g
     id="g4">
    <path
       style="opacity:1"
       fill="#4f090e"
       d="M 95.5,23.5 C 160.332,22.3346 225.332,22.168 290.5,23C 293.047,25.054 295.714,26.8874 298.5,28.5C 298.5,65.5 298.5,102.5 298.5,139.5C 297.178,139.67 296.011,139.337 295,138.5C 294.833,102.664 294.333,66.9977 293.5,31.5C 293.489,29.9826 292.823,28.8159 291.5,28C 225.168,27.5 158.834,27.3333 92.5,27.5C 92.6107,26.8826 92.944,26.3826 93.5,26C 152.836,25.8333 212.169,25.3333 271.5,24.5C 212.837,23.5 154.17,23.1667 95.5,23.5 Z"
       id="path4" />
  </g>
  <g
     id="g5">
    <path
       style="opacity:1"
       fill="#5a000a"
       d="M 95.5,23.5 C 154.17,23.1667 212.837,23.5 271.5,24.5C 212.169,25.3333 152.836,25.8333 93.5,26C 92.944,26.3826 92.6107,26.8826 92.5,27.5C 92.5,27.8333 92.5,28.1667 92.5,28.5C 89.9709,29.543 89.1375,28.543 90,25.5C 91.9483,24.8906 93.7816,24.224 95.5,23.5 Z"
       id="path5" />
  </g>
  <g
     id="g6">
    <path
       style="opacity:1"
       fill="#cfbabc"
       d="M 324.5,36.5 C 337.99,35.5043 351.656,35.171 365.5,35.5C 365.813,39.0419 365.479,42.3752 364.5,45.5C 364.81,42.2869 364.477,39.2869 363.5,36.5C 350.5,36.5 337.5,36.5 324.5,36.5 Z"
       id="path6" />
  </g>
  <g
     id="g7">
    <path
       style="opacity:1"
       fill="#dbced0"
       d="M 637.5,36.5 C 647.834,35.5473 658.167,35.214 668.5,35.5C 669.656,37.4622 671.656,38.7955 674.5,39.5C 676.176,40.7276 676.509,42.0609 675.5,43.5C 674.167,42.5 672.833,41.5 671.5,40.5C 670.02,38.5881 668.02,37.4215 665.5,37C 656.506,36.5002 647.506,36.3336 638.5,36.5C 638.167,36.5 637.833,36.5 637.5,36.5 Z"
       id="path7" />
  </g>
  <g
     id="g8">
    <path
       style="opacity:1"
       fill="#430d12"
       d="M 324.5,36.5 C 337.5,36.5 350.5,36.5 363.5,36.5C 363.5,39.1667 363.5,41.8333 363.5,44.5C 358.833,44.5 354.167,44.5 349.5,44.5C 352.977,43.6773 356.644,43.1773 360.5,43C 361.517,41.9505 361.684,40.7839 361,39.5C 349.333,38.1667 337.667,38.1667 326,39.5C 325.316,40.7839 325.483,41.9505 326.5,43C 331.019,43.1753 335.353,43.6753 339.5,44.5C 334.5,44.5 329.5,44.5 324.5,44.5C 324.5,41.8333 324.5,39.1667 324.5,36.5 Z"
       id="path8" />
  </g>
  <g
     id="g9">
    <path
       style="opacity:1"
       fill="#410f12"
       d="M 543.5,36.5 C 554.833,36.5 566.167,36.5 577.5,36.5C 577.5,39.1667 577.5,41.8333 577.5,44.5C 569.5,44.5 561.5,44.5 553.5,44.5C 560.648,43.5084 567.981,43.175 575.5,43.5C 575.5,41.8333 575.5,40.1667 575.5,38.5C 565.828,38.3335 556.161,38.5002 546.5,39C 545.771,41.0581 544.771,42.8914 543.5,44.5C 543.5,41.8333 543.5,39.1667 543.5,36.5 Z"
       id="path9" />
  </g>
  <g
     id="g10">
    <path
       style="opacity:1"
       fill="#400e12"
       d="M 721.5,36.5 C 722.036,39.6981 721.369,42.3647 719.5,44.5C 719.5,42.5 719.5,40.5 719.5,38.5C 708.782,38.2129 698.115,38.5462 687.5,39.5C 687.5,38.5 687.5,37.5 687.5,36.5C 698.833,36.5 710.167,36.5 721.5,36.5 Z"
       id="path10" />
  </g>
  <g
     id="g11">
    <path
       style="opacity:1"
       fill="#661213"
       d="M 671.5,40.5 C 672.704,42.7338 673.87,45.0671 675,47.5C 675.667,51.1667 675.667,54.8333 675,58.5C 674.617,59.056 674.117,59.3893 673.5,59.5C 672.21,60.0577 671.377,61.0577 671,62.5C 669.335,59.1127 669.168,55.6127 670.5,52C 670.693,49.9919 670.026,48.4919 668.5,47.5C 666.75,46.2583 665.083,44.7583 663.5,43C 658.5,42.3333 653.5,42.3333 648.5,43C 646.953,46.0976 646.286,49.4309 646.5,53C 646.635,56.5343 646.969,60.0343 647.5,63.5C 651.167,63.5 654.833,63.5 658.5,63.5C 661.167,63.5 663.833,63.5 666.5,63.5C 667.564,72.0019 665.564,73.1686 660.5,67C 649.008,63.662 644.341,67.8287 646.5,79.5C 644.167,79.5 641.833,79.5 639.5,79.5C 639.933,65.917 639.933,52.2503 639.5,38.5C 650.235,38.2366 660.902,38.9033 671.5,40.5 Z"
       id="path11" />
  </g>
  <g
     id="g12">
    <path
       style="opacity:1"
       fill="#8e6b69"
       d="M 363.5,36.5 C 364.477,39.2869 364.81,42.2869 364.5,45.5C 359.5,45.5 354.5,45.5 349.5,45.5C 349.5,45.1667 349.5,44.8333 349.5,44.5C 354.167,44.5 358.833,44.5 363.5,44.5C 363.5,41.8333 363.5,39.1667 363.5,36.5 Z"
       id="path12" />
  </g>
  <g
     id="g13">
    <path
       style="opacity:1"
       fill="#a18082"
       d="M 553.5,44.5 C 561.5,44.5 569.5,44.5 577.5,44.5C 569.684,45.4924 561.684,45.8257 553.5,45.5C 553.5,48.5 553.5,51.5 553.5,54.5C 560.354,54.176 567.021,54.5093 573.5,55.5C 566.833,55.5 560.167,55.5 553.5,55.5C 552.167,51.8333 552.167,48.1667 553.5,44.5 Z"
       id="path13" />
  </g>
  <g
     id="g14">
    <path
       style="opacity:1"
       fill="#4b1c1f"
       d="M 623.5,47.5 C 623.662,45.4727 623.495,43.4727 623,41.5C 617.277,39.1549 611.277,37.8216 605,37.5C 602.336,37.7486 600.169,38.9153 598.5,41C 596.187,41.662 593.854,42.162 591.5,42.5C 594.11,38.8499 597.777,36.6832 602.5,36C 611.543,34.1508 619.71,35.9841 627,41.5C 627.387,44.3045 626.221,46.3045 623.5,47.5 Z"
       id="path14" />
  </g>
  <g
     id="g15">
    <path
       style="opacity:1"
       fill="#a98b8a"
       d="M 721.5,36.5 C 722.477,39.2869 722.81,42.2869 722.5,45.5C 714.167,45.5 705.833,45.5 697.5,45.5C 704.648,44.5084 711.981,44.175 719.5,44.5C 721.369,42.3647 722.036,39.6981 721.5,36.5 Z"
       id="path15" />
  </g>
  <g
     id="g16">
    <path
       style="opacity:1"
       fill="#9a7d7c"
       d="M 731.5,36.5 C 742.988,35.5051 754.655,35.1717 766.5,35.5C 766.5,38.8333 766.5,42.1667 766.5,45.5C 758.167,45.5 749.833,45.5 741.5,45.5C 749.316,44.5076 757.316,44.1743 765.5,44.5C 765.5,41.8333 765.5,39.1667 765.5,36.5C 754.167,36.5 742.833,36.5 731.5,36.5 Z"
       id="path16" />
  </g>
  <g
     id="g17">
    <path
       style="opacity:1"
       fill="#5b100f"
       d="M 517.5,37.5 C 521.505,38.4977 524.839,40.4977 527.5,43.5C 527.5,44.8333 527.5,46.1667 527.5,47.5C 526.5,47.5 525.5,47.5 524.5,47.5C 524.36,49.1238 525.027,50.2904 526.5,51C 526.771,54.5133 526.437,58.18 525.5,62C 526.022,62.9503 526.689,63.7836 527.5,64.5C 525.949,67.359 524.949,70.359 524.5,73.5C 525.5,73.5 526.5,73.5 527.5,73.5C 524.761,74.5752 523.094,76.5752 522.5,79.5C 521.833,79.5 521.167,79.5 520.5,79.5C 520.167,79.5 519.833,79.5 519.5,79.5C 519.725,76.6834 518.059,75.3501 514.5,75.5C 516.121,73.8828 518.121,72.7162 520.5,72C 521.85,70.2817 523.017,68.4484 524,66.5C 524.667,61.8333 524.667,57.1667 524,52.5C 523.428,49.293 521.595,47.6263 518.5,47.5C 518.119,46.0689 517.119,45.2355 515.5,45C 510.177,44.5006 504.844,44.334 499.5,44.5C 505.653,43.3467 511.986,43.18 518.5,44C 519.711,45.5778 521.045,45.7445 522.5,44.5C 521.184,43.1934 520.184,41.6934 519.5,40C 510.506,39.5002 501.506,39.3336 492.5,39.5C 492.654,52.8085 492.32,66.1418 491.5,79.5C 492.833,79.5 494.167,79.5 495.5,79.5C 493.777,80.807 491.943,80.807 490,79.5C 489.333,66.1667 489.333,52.8333 490,39.5C 490.5,39 491,38.5 491.5,38C 500.357,37.7228 509.024,37.5562 517.5,37.5 Z"
       id="path17" />
  </g>
  <g
     id="g18">
    <path
       style="opacity:1"
       fill="#611012"
       d="M 623.5,47.5 C 623.53,48.4972 623.03,49.1639 622,49.5C 614.919,43.7597 607.419,43.0931 599.5,47.5C 597.833,47.5 596.167,47.5 594.5,47.5C 593.573,53.8111 593.406,60.1444 594,66.5C 597.528,69.6125 597.194,71.9458 593,73.5C 587.647,70.465 585.147,65.7983 585.5,59.5C 585.722,55.6124 586.722,51.9458 588.5,48.5C 589.325,47.6143 590.325,47.281 591.5,47.5C 591.5,45.8333 591.5,44.1667 591.5,42.5C 593.854,42.162 596.187,41.662 598.5,41C 600.169,38.9153 602.336,37.7486 605,37.5C 611.277,37.8216 617.277,39.1549 623,41.5C 623.495,43.4727 623.662,45.4727 623.5,47.5 Z"
       id="path18" />
  </g>
  <g
     id="g19">
    <path
       style="opacity:1"
       fill="#650908"
       d="M 499.5,44.5 C 498.167,44.5 496.833,44.5 495.5,44.5C 495.168,54.5222 495.501,64.5222 496.5,74.5C 499.563,76.0778 502.896,76.7444 506.5,76.5C 509.355,76.4975 512.022,76.1641 514.5,75.5C 518.059,75.3501 519.725,76.6834 519.5,79.5C 511.5,79.5 503.5,79.5 495.5,79.5C 494.167,79.5 492.833,79.5 491.5,79.5C 492.32,66.1418 492.654,52.8085 492.5,39.5C 501.506,39.3336 510.506,39.5002 519.5,40C 520.184,41.6934 521.184,43.1934 522.5,44.5C 521.045,45.7445 519.711,45.5778 518.5,44C 511.986,43.18 505.653,43.3467 499.5,44.5 Z"
       id="path19" />
  </g>
  <g
     id="g20">
    <path
       style="opacity:1"
       fill="#9c8987"
       d="M 721.5,36.5 C 710.167,36.5 698.833,36.5 687.5,36.5C 687.5,37.5 687.5,38.5 687.5,39.5C 687.5,42.1667 687.5,44.8333 687.5,47.5C 687.5,58.8333 687.5,70.1667 687.5,81.5C 687.5,81.8333 687.5,82.1667 687.5,82.5C 686.504,67.0089 686.17,51.3422 686.5,35.5C 698.345,35.1717 710.012,35.5051 721.5,36.5 Z"
       id="path20" />
  </g>
  <g
     id="g21">
    <path
       style="opacity:1"
       fill="#5e090e"
       d="M 435.5,45.5 C 435.167,45.5 434.833,45.5 434.5,45.5C 431.104,45.6329 430.771,46.6329 433.5,48.5C 430.665,51.6705 430.998,54.5038 434.5,57C 440.157,57.4994 445.824,57.6661 451.5,57.5C 451.5,58.5 451.5,59.5 451.5,60.5C 445.101,60.8998 438.768,60.8998 432.5,60.5C 431.672,64.7956 431.172,69.1289 431,73.5C 430.5,74 430,74.5 429.5,75C 432.901,74.734 434.567,76.234 434.5,79.5C 433.5,79.5 432.5,79.5 431.5,79.5C 429.5,79.5 427.5,79.5 425.5,79.5C 425.185,66.1172 425.518,52.7838 426.5,39.5C 436.812,38.5014 447.145,38.1681 457.5,38.5C 457.5,40.1667 457.5,41.8333 457.5,43.5C 450.492,43.3337 443.492,43.5004 436.5,44C 435.944,44.3826 435.611,44.8826 435.5,45.5 Z"
       id="path21" />
  </g>
  <g
     id="g22">
    <path
       style="opacity:1"
       fill="#501c1b"
       d="M 668.5,47.5 C 668.826,51.8839 668.492,56.2172 667.5,60.5C 664.891,61.2305 662.224,61.7305 659.5,62C 658.944,62.3826 658.611,62.8826 658.5,63.5C 654.833,63.5 651.167,63.5 647.5,63.5C 646.969,60.0343 646.635,56.5343 646.5,53C 646.286,49.4309 646.953,46.0976 648.5,43C 653.5,42.3333 658.5,42.3333 663.5,43C 665.083,44.7583 666.75,46.2583 668.5,47.5 Z"
       id="path22" />
  </g>
  <g
     id="g23">
    <path
       style="opacity:1"
       fill="#fafaf7"
       d="M 661.5,45.5 C 668.044,48.7179 669.044,53.2179 664.5,59C 662.564,59.813 660.564,60.313 658.5,60.5C 655.5,60.5 652.5,60.5 649.5,60.5C 649.5,55.5 649.5,50.5 649.5,45.5C 653.5,45.5 657.5,45.5 661.5,45.5 Z"
       id="path23" />
  </g>
  <g
     id="g24">
    <path
       style="opacity:1"
       fill="#590c0b"
       d="M 719.5,44.5 C 711.981,44.175 704.648,44.5084 697.5,45.5C 697.5,48.5 697.5,51.5 697.5,54.5C 697.5,54.8333 697.5,55.1667 697.5,55.5C 703.645,56.4902 709.978,56.8235 716.5,56.5C 716.643,58.2624 716.309,59.9291 715.5,61.5C 709.036,62.4228 702.702,62.4228 696.5,61.5C 694.492,65.2291 693.992,69.2291 695,73.5C 695.5,74.6667 696.333,75.5 697.5,76C 704.826,76.4997 712.159,76.6663 719.5,76.5C 719.5,77.5 719.5,78.5 719.5,79.5C 709.833,79.5 700.167,79.5 690.5,79.5C 689.948,72.7949 689.948,66.1282 690.5,59.5C 690.597,57.0554 689.93,54.8887 688.5,53C 690.13,50.5724 689.797,48.739 687.5,47.5C 687.5,44.8333 687.5,42.1667 687.5,39.5C 698.115,38.5462 708.782,38.2129 719.5,38.5C 719.5,40.5 719.5,42.5 719.5,44.5 Z"
       id="path24" />
  </g>
  <g
     id="g25">
    <path
       style="opacity:1"
       fill="#68110b"
       d="M 527.5,47.5 C 530.858,50.4286 532.192,54.2619 531.5,59C 531.395,61.8653 531.062,64.6986 530.5,67.5C 528.624,69.048 527.624,71.048 527.5,73.5C 526.5,73.5 525.5,73.5 524.5,73.5C 524.949,70.359 525.949,67.359 527.5,64.5C 526.689,63.7836 526.022,62.9503 525.5,62C 526.437,58.18 526.771,54.5133 526.5,51C 525.027,50.2904 524.36,49.1238 524.5,47.5C 525.5,47.5 526.5,47.5 527.5,47.5 Z"
       id="path25" />
  </g>
  <g
     id="g26">
    <path
       style="opacity:1"
       fill="#591616"
       d="M 668.5,47.5 C 670.026,48.4919 670.693,49.9919 670.5,52C 669.168,55.6127 669.335,59.1127 671,62.5C 671.377,61.0577 672.21,60.0577 673.5,59.5C 673.594,62.5406 672.094,64.2072 669,64.5C 668.22,66.3869 668.387,68.0536 669.5,69.5C 669.833,70.1667 670.167,70.8333 670.5,71.5C 671.265,74.0961 671.599,76.7628 671.5,79.5C 669.833,79.5 668.167,79.5 666.5,79.5C 666.579,78.0695 666.246,76.7362 665.5,75.5C 663.364,74.5276 662.197,72.8609 662,70.5C 661.329,69.7476 660.496,69.4142 659.5,69.5C 655.833,69.5 652.167,69.5 648.5,69.5C 648.5,72.8333 648.5,76.1667 648.5,79.5C 647.833,79.5 647.167,79.5 646.5,79.5C 644.341,67.8287 649.008,63.662 660.5,67C 665.564,73.1686 667.564,72.0019 666.5,63.5C 663.833,63.5 661.167,63.5 658.5,63.5C 658.611,62.8826 658.944,62.3826 659.5,62C 662.224,61.7305 664.891,61.2305 667.5,60.5C 668.492,56.2172 668.826,51.8839 668.5,47.5 Z"
       id="path26" />
  </g>
  <g
     id="g27">
    <path
       style="opacity:1"
       fill="#af8f8f"
       d="M 511.5,36.5 C 503.833,36.5 496.167,36.5 488.5,36.5C 488.5,50.8333 488.5,65.1667 488.5,79.5C 488.167,79.5 487.833,79.5 487.5,79.5C 487.5,64.8333 487.5,50.1667 487.5,35.5C 495.684,35.1743 503.684,35.5076 511.5,36.5 Z"
       id="path27" />
  </g>
  <g
     id="g28">
    <path
       style="opacity:1"
       fill="#610d0e"
       d="M 349.5,44.5 C 348.505,55.988 348.172,67.6547 348.5,79.5C 346.5,79.5 344.5,79.5 342.5,79.5C 343.113,73.7291 342.446,68.3958 340.5,63.5C 340.823,57.31 340.49,51.31 339.5,45.5C 339.5,45.1667 339.5,44.8333 339.5,44.5C 335.353,43.6753 331.019,43.1753 326.5,43C 325.483,41.9505 325.316,40.7839 326,39.5C 337.667,38.1667 349.333,38.1667 361,39.5C 361.684,40.7839 361.517,41.9505 360.5,43C 356.644,43.1773 352.977,43.6773 349.5,44.5 Z"
       id="path28" />
  </g>
  <g
     id="g29">
    <path
       style="opacity:1"
       fill="#d1b8b1"
       d="M 661.5,45.5 C 657.5,45.5 653.5,45.5 649.5,45.5C 649.5,50.5 649.5,55.5 649.5,60.5C 652.5,60.5 655.5,60.5 658.5,60.5C 655.375,61.4794 652.042,61.8128 648.5,61.5C 648.5,55.8333 648.5,50.1667 648.5,44.5C 653.032,44.1818 657.366,44.5151 661.5,45.5 Z"
       id="path29" />
  </g>
  <g
     id="g30">
    <path
       style="opacity:1"
       fill="#5a0b0e"
       d="M 553.5,44.5 C 552.167,48.1667 552.167,51.8333 553.5,55.5C 558.985,56.3272 564.652,56.8272 570.5,57C 571.991,59.0217 571.658,60.6883 569.5,62C 567.833,62.1667 566.167,62.3333 564.5,62.5C 560.159,61.8294 555.826,61.1627 551.5,60.5C 550.334,65.497 550.334,70.497 551.5,75.5C 559.444,76.4685 567.444,76.8019 575.5,76.5C 575.5,77.5 575.5,78.5 575.5,79.5C 564.833,79.5 554.167,79.5 543.5,79.5C 543.5,67.8333 543.5,56.1667 543.5,44.5C 544.771,42.8914 545.771,41.0581 546.5,39C 556.161,38.5002 565.828,38.3335 575.5,38.5C 575.5,40.1667 575.5,41.8333 575.5,43.5C 567.981,43.175 560.648,43.5084 553.5,44.5 Z"
       id="path30" />
  </g>
  <g
     id="g31">
    <path
       style="opacity:1"
       fill="#795453"
       d="M 697.5,55.5 C 697.5,55.1667 697.5,54.8333 697.5,54.5C 704.833,54.5 712.167,54.5 719.5,54.5C 719.5,57.5 719.5,60.5 719.5,63.5C 718.5,63.5 717.5,63.5 716.5,63.5C 718.202,61.1998 718.868,58.5331 718.5,55.5C 711.5,55.5 704.5,55.5 697.5,55.5 Z"
       id="path31" />
  </g>
  <g
     id="g32">
    <path
       style="opacity:1"
       fill="#532827"
       d="M 671.5,40.5 C 672.833,41.5 674.167,42.5 675.5,43.5C 680.706,52.8613 678.872,60.5279 670,66.5C 669.517,67.448 669.351,68.448 669.5,69.5C 668.387,68.0536 668.22,66.3869 669,64.5C 672.094,64.2072 673.594,62.5406 673.5,59.5C 674.117,59.3893 674.617,59.056 675,58.5C 675.667,54.8333 675.667,51.1667 675,47.5C 673.87,45.0671 672.704,42.7338 671.5,40.5 Z"
       id="path32" />
  </g>
  <g
     id="g33">
    <path
       style="opacity:1"
       fill="#5e0e0e"
       d="M 380.5,51.5 C 380.051,53.9775 380.717,55.9775 382.5,57.5C 388.104,56.5456 393.771,56.2123 399.5,56.5C 399.5,58.1667 399.5,59.8333 399.5,61.5C 393.729,60.8872 388.396,61.5539 383.5,63.5C 382.833,63.5 382.167,63.5 381.5,63.5C 381.167,63.5 380.833,63.5 380.5,63.5C 379.512,68.6405 379.179,73.9738 379.5,79.5C 377.5,79.5 375.5,79.5 373.5,79.5C 373.333,66.1625 373.5,52.8292 374,39.5C 375.396,37.4732 377.062,37.1398 379,38.5C 379.175,43.0195 379.675,47.3528 380.5,51.5 Z"
       id="path33" />
  </g>
  <g
     id="g34">
    <path
       style="opacity:1"
       fill="#5e201f"
       d="M 380.5,36.5 C 381.49,42.31 381.823,48.31 381.5,54.5C 388.5,54.5 395.5,54.5 402.5,54.5C 402.5,48.5 402.5,42.5 402.5,36.5C 404.833,36.5 407.167,36.5 409.5,36.5C 410.172,37.2674 411.005,37.9341 412,38.5C 412.167,45.3333 412.333,52.1667 412.5,59C 412.497,66.2009 411.83,73.0342 410.5,79.5C 410.5,74.1667 410.5,68.8333 410.5,63.5C 409.167,63.5 407.833,63.5 406.5,63.5C 406.5,68.8333 406.5,74.1667 406.5,79.5C 404.856,74.4104 403.856,69.077 403.5,63.5C 403.167,63.5 402.833,63.5 402.5,63.5C 396.167,63.5 389.833,63.5 383.5,63.5C 388.396,61.5539 393.729,60.8872 399.5,61.5C 399.5,59.8333 399.5,58.1667 399.5,56.5C 393.771,56.2123 388.104,56.5456 382.5,57.5C 380.717,55.9775 380.051,53.9775 380.5,51.5C 380.5,46.5 380.5,41.5 380.5,36.5 Z"
       id="path34" />
  </g>
  <g
     id="g35">
    <path
       style="opacity:1"
       fill="#680f13"
       d="M 405.5,38.5 C 407.144,38.2865 408.644,38.6198 410,39.5C 411.087,46.4598 411.587,53.4598 411.5,60.5C 408.551,58.9444 405.884,59.2777 403.5,61.5C 402.534,59.604 402.201,57.604 402.5,55.5C 404.262,55.3573 405.929,55.6906 407.5,56.5C 410.667,52.0001 409.667,49.0001 404.5,47.5C 404.264,44.3915 404.597,41.3915 405.5,38.5 Z"
       id="path35" />
  </g>
  <g
     id="g36">
    <path
       style="opacity:1"
       fill="#562323"
       d="M 499.5,44.5 C 504.844,44.334 510.177,44.5006 515.5,45C 517.119,45.2355 518.119,46.0689 518.5,47.5C 521.595,47.6263 523.428,49.293 524,52.5C 524.667,57.1667 524.667,61.8333 524,66.5C 523.017,68.4484 521.85,70.2817 520.5,72C 518.121,72.7162 516.121,73.8828 514.5,75.5C 512.022,76.1641 509.355,76.4975 506.5,76.5C 502.896,76.7444 499.563,76.0778 496.5,74.5C 495.501,64.5222 495.168,54.5222 495.5,44.5C 496.833,44.5 498.167,44.5 499.5,44.5 Z"
       id="path36" />
  </g>
  <g
     id="g37">
    <path
       style="opacity:1"
       fill="#f9f8f7"
       d="M 518.5,47.5 C 525.432,55.6209 525.099,63.4542 517.5,71C 511.49,73.8684 505.157,75.0351 498.5,74.5C 498.5,64.8333 498.5,55.1667 498.5,45.5C 505.33,45.0647 511.996,45.7314 518.5,47.5 Z"
       id="path37" />
  </g>
  <g
     id="g38">
    <path
       style="opacity:1"
       fill="#673730"
       d="M 298.5,27.5 C 299.499,65.3297 299.832,103.33 299.5,141.5C 297.833,141.5 296.167,141.5 294.5,141.5C 293.833,141.5 293.5,141.167 293.5,140.5C 295.415,140.784 297.081,140.451 298.5,139.5C 298.5,102.5 298.5,65.5 298.5,28.5C 298.5,28.1667 298.5,27.8333 298.5,27.5 Z"
       id="path38" />
  </g>
  <g
     id="g39">
    <path
       style="opacity:1"
       fill="#9c8180"
       d="M 380.5,36.5 C 377.5,36.5 374.5,36.5 371.5,36.5C 371.5,51.5 371.5,66.5 371.5,81.5C 374.5,81.5 377.5,81.5 380.5,81.5C 380.5,75.5 380.5,69.5 380.5,63.5C 380.833,63.5 381.167,63.5 381.5,63.5C 381.5,69.8333 381.5,76.1667 381.5,82.5C 377.833,82.5 374.167,82.5 370.5,82.5C 370.5,66.8333 370.5,51.1667 370.5,35.5C 374.042,35.1872 377.375,35.5206 380.5,36.5 Z"
       id="path39" />
  </g>
  <g
     id="g40">
    <path
       style="opacity:1"
       fill="#3f0d10"
       d="M 511.5,36.5 C 513.435,37.1495 515.435,37.4828 517.5,37.5C 509.024,37.5562 500.357,37.7228 491.5,38C 491,38.5 490.5,39 490,39.5C 489.333,52.8333 489.333,66.1667 490,79.5C 491.943,80.807 493.777,80.807 495.5,79.5C 503.5,79.5 511.5,79.5 519.5,79.5C 519.833,79.5 520.167,79.5 520.5,79.5C 518.485,80.9238 516.152,81.5905 513.5,81.5C 504.766,82.135 496.433,81.4684 488.5,79.5C 488.5,65.1667 488.5,50.8333 488.5,36.5C 496.167,36.5 503.833,36.5 511.5,36.5 Z"
       id="path40" />
  </g>
  <g
     id="g41">
    <path
       style="opacity:1"
       fill="#592b26"
       d="M 527.5,43.5 C 536.336,53.2563 536.836,63.5896 529,74.5C 526.713,76.0544 524.546,77.7211 522.5,79.5C 523.094,76.5752 524.761,74.5752 527.5,73.5C 527.624,71.048 528.624,69.048 530.5,67.5C 531.062,64.6986 531.395,61.8653 531.5,59C 532.192,54.2619 530.858,50.4286 527.5,47.5C 527.5,46.1667 527.5,44.8333 527.5,43.5 Z"
       id="path41" />
  </g>
  <g
     id="g42">
    <path
       style="opacity:1"
       fill="#6d4c4e"
       d="M 637.5,36.5 C 637.833,36.5 638.167,36.5 638.5,36.5C 638.5,51.5 638.5,66.5 638.5,81.5C 641.833,81.5 645.167,81.5 648.5,81.5C 648.5,81.8333 648.5,82.1667 648.5,82.5C 644.833,82.5 641.167,82.5 637.5,82.5C 637.5,67.1667 637.5,51.8333 637.5,36.5 Z"
       id="path42" />
  </g>
  <g
     id="g43">
    <path
       style="opacity:1"
       fill="#533638"
       d="M 339.5,45.5 C 340.49,51.31 340.823,57.31 340.5,63.5C 340.5,69.5 340.5,75.5 340.5,81.5C 343.5,81.5 346.5,81.5 349.5,81.5C 346.375,82.4794 343.042,82.8128 339.5,82.5C 339.5,70.1667 339.5,57.8333 339.5,45.5 Z"
       id="path43" />
  </g>
  <g
     id="g44">
    <path
       style="opacity:1"
       fill="#39080b"
       d="M 349.5,44.5 C 349.5,44.8333 349.5,45.1667 349.5,45.5C 349.5,57.5 349.5,69.5 349.5,81.5C 346.5,81.5 343.5,81.5 340.5,81.5C 340.5,75.5 340.5,69.5 340.5,63.5C 342.446,68.3958 343.113,73.7291 342.5,79.5C 344.5,79.5 346.5,79.5 348.5,79.5C 348.172,67.6547 348.505,55.988 349.5,44.5 Z"
       id="path44" />
  </g>
  <g
     id="g45">
    <path
       style="opacity:1"
       fill="#401216"
       d="M 638.5,36.5 C 647.506,36.3336 656.506,36.5002 665.5,37C 668.02,37.4215 670.02,38.5881 671.5,40.5C 660.902,38.9033 650.235,38.2366 639.5,38.5C 639.933,52.2503 639.933,65.917 639.5,79.5C 641.833,79.5 644.167,79.5 646.5,79.5C 647.167,79.5 647.833,79.5 648.5,79.5C 648.5,80.1667 648.5,80.8333 648.5,81.5C 645.167,81.5 641.833,81.5 638.5,81.5C 638.5,66.5 638.5,51.5 638.5,36.5 Z"
       id="path45" />
  </g>
  <g
     id="g46">
    <path
       style="opacity:1"
       fill="#7c5e5f"
       d="M 402.5,63.5 C 402.833,63.5 403.167,63.5 403.5,63.5C 403.5,69.5 403.5,75.5 403.5,81.5C 406.833,81.5 410.167,81.5 413.5,81.5C 410.038,82.4816 406.371,82.815 402.5,82.5C 402.5,76.1667 402.5,69.8333 402.5,63.5 Z"
       id="path46" />
  </g>
  <g
     id="g47">
    <path
       style="opacity:1"
       fill="#cdb3b2"
       d="M 435.5,63.5 C 435.5,66.8333 435.5,70.1667 435.5,73.5C 444.017,73.1739 452.35,73.5073 460.5,74.5C 460.167,74.5 459.833,74.5 459.5,74.5C 451.167,74.5 442.833,74.5 434.5,74.5C 434.185,70.6286 434.518,66.9619 435.5,63.5 Z"
       id="path47" />
  </g>
  <g
     id="g48">
    <path
       style="opacity:1"
       fill="#cab1b0"
       d="M 554.5,63.5 C 553.586,66.728 553.253,70.0613 553.5,73.5C 562.017,73.1739 570.35,73.5073 578.5,74.5C 569.833,74.5 561.167,74.5 552.5,74.5C 551.92,70.351 552.586,66.6843 554.5,63.5 Z"
       id="path48" />
  </g>
  <g
     id="g49">
    <path
       style="opacity:1"
       fill="#531b1a"
       d="M 591.5,42.5 C 591.5,44.1667 591.5,45.8333 591.5,47.5C 590.325,47.281 589.325,47.6143 588.5,48.5C 586.722,51.9458 585.722,55.6124 585.5,59.5C 585.147,65.7983 587.647,70.465 593,73.5C 597.194,71.9458 597.528,69.6125 594,66.5C 593.406,60.1444 593.573,53.8111 594.5,47.5C 596.167,47.5 597.833,47.5 599.5,47.5C 592.078,56.9597 593.078,65.4597 602.5,73C 616.18,77.4893 621.513,72.656 618.5,58.5C 621.5,58.5 624.5,58.5 627.5,58.5C 627.666,64.8421 627.5,71.1754 627,77.5C 616.17,84.8659 605.003,85.3659 593.5,79C 583.14,69.2058 581.307,58.0391 588,45.5C 589.039,44.2899 590.206,43.2899 591.5,42.5 Z"
       id="path49" />
  </g>
  <g
     id="g50">
    <path
       style="opacity:1"
       fill="#b79d9a"
       d="M 697.5,63.5 C 697.5,66.8333 697.5,70.1667 697.5,73.5C 706.017,73.1739 714.35,73.5073 722.5,74.5C 722.167,74.5 721.833,74.5 721.5,74.5C 713.167,74.5 704.833,74.5 696.5,74.5C 696.185,70.6286 696.518,66.9619 697.5,63.5 Z"
       id="path50" />
  </g>
  <g
     id="g51">
    <path
       style="opacity:1"
       fill="#4f1718"
       d="M 553.5,55.5 C 560.167,55.5 566.833,55.5 573.5,55.5C 574.473,57.9479 574.806,60.6146 574.5,63.5C 567.833,63.5 561.167,63.5 554.5,63.5C 552.586,66.6843 551.92,70.351 552.5,74.5C 561.167,74.5 569.833,74.5 578.5,74.5C 578.5,76.8333 578.5,79.1667 578.5,81.5C 566.452,82.1451 554.785,81.4784 543.5,79.5C 554.167,79.5 564.833,79.5 575.5,79.5C 575.5,78.5 575.5,77.5 575.5,76.5C 567.444,76.8019 559.444,76.4685 551.5,75.5C 550.334,70.497 550.334,65.497 551.5,60.5C 555.826,61.1627 560.159,61.8294 564.5,62.5C 566.167,62.3333 567.833,62.1667 569.5,62C 571.658,60.6883 571.991,59.0217 570.5,57C 564.652,56.8272 558.985,56.3272 553.5,55.5 Z"
       id="path51" />
  </g>
  <g
     id="g52">
    <path
       style="opacity:1"
       fill="#620a0d"
       d="M 621.5,61.5 C 624.971,62.6787 626.304,65.1787 625.5,69C 625.733,72.4589 624.899,75.6255 623,78.5C 621.491,77.9103 619.991,77.2436 618.5,76.5C 620.057,73.9124 621.057,71.0791 621.5,68C 620.28,65.83 620.28,63.6633 621.5,61.5 Z"
       id="path52" />
  </g>
  <g
     id="g53">
    <path
       style="opacity:1"
       fill="#dfc8c2"
       d="M 659.5,69.5 C 660.441,71.0495 661.107,72.7162 661.5,74.5C 660.603,73.4019 659.77,73.4019 659,74.5C 656.96,70.8689 653.793,69.5356 649.5,70.5C 649.817,74.7016 649.483,78.7016 648.5,82.5C 648.5,82.1667 648.5,81.8333 648.5,81.5C 648.5,80.8333 648.5,80.1667 648.5,79.5C 648.5,76.1667 648.5,72.8333 648.5,69.5C 652.167,69.5 655.833,69.5 659.5,69.5 Z"
       id="path53" />
  </g>
  <g
     id="g54">
    <path
       style="opacity:1"
       fill="#561213"
       d="M 434.5,45.5 C 434.5,48.5 434.5,51.5 434.5,54.5C 441.508,54.3337 448.508,54.5004 455.5,55C 456.444,57.7191 456.777,60.5525 456.5,63.5C 449.5,63.5 442.5,63.5 435.5,63.5C 434.518,66.9619 434.185,70.6286 434.5,74.5C 441.989,75.329 449.656,75.829 457.5,76C 458.337,77.0113 458.67,78.1779 458.5,79.5C 449.334,80.3958 440.334,80.3958 431.5,79.5C 432.5,79.5 433.5,79.5 434.5,79.5C 434.567,76.234 432.901,74.734 429.5,75C 430,74.5 430.5,74 431,73.5C 431.172,69.1289 431.672,64.7956 432.5,60.5C 438.768,60.8998 445.101,60.8998 451.5,60.5C 451.5,59.5 451.5,58.5 451.5,57.5C 445.824,57.6661 440.157,57.4994 434.5,57C 430.998,54.5038 430.665,51.6705 433.5,48.5C 430.771,46.6329 431.104,45.6329 434.5,45.5 Z"
       id="path54" />
  </g>
  <g
     id="g55">
    <path
       style="opacity:1"
       fill="#610d0e"
       d="M 598.5,76.5 C 605.096,77.5501 611.762,78.3835 618.5,79C 611.805,81.9555 605.138,82.1221 598.5,79.5C 598.5,78.5 598.5,77.5 598.5,76.5 Z"
       id="path55" />
  </g>
  <g
     id="g56">
    <path
       style="opacity:1"
       fill="#3c1112"
       d="M 293.5,31.5 C 294.333,66.9977 294.833,102.664 295,138.5C 296.011,139.337 297.178,139.67 298.5,139.5C 297.081,140.451 295.415,140.784 293.5,140.5C 293.5,104.167 293.5,67.8333 293.5,31.5 Z"
       id="path56" />
  </g>
  <g
     id="g57">
    <path
       style="opacity:1"
       fill="#400d11"
       d="M 380.5,36.5 C 380.5,41.5 380.5,46.5 380.5,51.5C 379.675,47.3528 379.175,43.0195 379,38.5C 377.062,37.1398 375.396,37.4732 374,39.5C 373.5,52.8292 373.333,66.1625 373.5,79.5C 375.5,79.5 377.5,79.5 379.5,79.5C 379.179,73.9738 379.512,68.6405 380.5,63.5C 380.5,69.5 380.5,75.5 380.5,81.5C 377.5,81.5 374.5,81.5 371.5,81.5C 371.5,66.5 371.5,51.5 371.5,36.5C 374.5,36.5 377.5,36.5 380.5,36.5 Z"
       id="path57" />
  </g>
  <g
     id="g58">
    <path
       style="opacity:1"
       fill="#3f1417"
       d="M 409.5,36.5 C 410.833,36.5 412.167,36.5 413.5,36.5C 413.5,51.5 413.5,66.5 413.5,81.5C 410.167,81.5 406.833,81.5 403.5,81.5C 403.5,75.5 403.5,69.5 403.5,63.5C 403.856,69.077 404.856,74.4104 406.5,79.5C 407.833,79.5 409.167,79.5 410.5,79.5C 411.83,73.0342 412.497,66.2009 412.5,59C 412.333,52.1667 412.167,45.3333 412,38.5C 411.005,37.9341 410.172,37.2674 409.5,36.5 Z"
       id="path58" />
  </g>
  <g
     id="g59">
    <path
       style="opacity:1"
       fill="#660b0f"
       d="M 410.5,79.5 C 409.167,79.5 407.833,79.5 406.5,79.5C 406.5,74.1667 406.5,68.8333 406.5,63.5C 407.833,63.5 409.167,63.5 410.5,63.5C 410.5,68.8333 410.5,74.1667 410.5,79.5 Z"
       id="path59" />
  </g>
  <g
     id="g60">
    <path
       style="opacity:1"
       fill="#4d1214"
       d="M 731.5,36.5 C 742.833,36.5 754.167,36.5 765.5,36.5C 765.5,39.1667 765.5,41.8333 765.5,44.5C 757.316,44.1743 749.316,44.5076 741.5,45.5C 741.5,48.5 741.5,51.5 741.5,54.5C 748.833,54.5 756.167,54.5 763.5,54.5C 763.5,57.5 763.5,60.5 763.5,63.5C 757.833,63.5 752.167,63.5 746.5,63.5C 745.047,62.1751 745.381,61.3418 747.5,61C 750.694,60.4077 753.861,60.5743 757,61.5C 760.822,61.0305 761.322,59.5305 758.5,57C 752.5,56.6667 746.5,56.3333 740.5,56C 739.546,52.5262 739.046,49.0262 739,45.5C 739.5,45 740,44.5 740.5,44C 748.665,43.9683 756.665,43.3016 764.5,42C 763.79,39.4561 762.124,38.2895 759.5,38.5C 750.939,39.1535 742.439,39.4868 734,39.5C 734.332,52.8103 734.499,66.1436 734.5,79.5C 744.839,79.6665 755.172,79.4998 765.5,79C 764.167,78.3333 762.833,77.6667 761.5,77C 754.5,76.6667 747.5,76.3333 740.5,76C 739.866,73.9255 739.532,71.7588 739.5,69.5C 739.539,67.0478 740.206,65.0478 741.5,63.5C 741.5,67.1667 741.5,70.8333 741.5,74.5C 749.833,74.5 758.167,74.5 766.5,74.5C 766.5,76.8333 766.5,79.1667 766.5,81.5C 754.833,81.5 743.167,81.5 731.5,81.5C 731.5,66.5 731.5,51.5 731.5,36.5 Z"
       id="path60" />
  </g>
  <g
     id="g61">
    <path
       style="opacity:1"
       fill="#5d0c0b"
       d="M 746.5,63.5 C 744.833,63.5 743.167,63.5 741.5,63.5C 740.206,65.0478 739.539,67.0478 739.5,69.5C 739.532,71.7588 739.866,73.9255 740.5,76C 747.5,76.3333 754.5,76.6667 761.5,77C 762.833,77.6667 764.167,78.3333 765.5,79C 755.172,79.4998 744.839,79.6665 734.5,79.5C 734.499,66.1436 734.332,52.8103 734,39.5C 742.439,39.4868 750.939,39.1535 759.5,38.5C 762.124,38.2895 763.79,39.4561 764.5,42C 756.665,43.3016 748.665,43.9683 740.5,44C 740,44.5 739.5,45 739,45.5C 739.046,49.0262 739.546,52.5262 740.5,56C 746.5,56.3333 752.5,56.6667 758.5,57C 761.322,59.5305 760.822,61.0305 757,61.5C 753.861,60.5743 750.694,60.4077 747.5,61C 745.381,61.3418 745.047,62.1751 746.5,63.5 Z"
       id="path61" />
  </g>
  <g
     id="g62">
    <path
       style="opacity:1"
       fill="#4a181a"
       d="M 435.5,45.5 C 435.611,44.8826 435.944,44.3826 436.5,44C 443.492,43.5004 450.492,43.3337 457.5,43.5C 457.5,41.8333 457.5,40.1667 457.5,38.5C 447.145,38.1681 436.812,38.5014 426.5,39.5C 425.518,52.7838 425.185,66.1172 425.5,79.5C 427.5,79.5 429.5,79.5 431.5,79.5C 440.334,80.3958 449.334,80.3958 458.5,79.5C 458.67,78.1779 458.337,77.0113 457.5,76C 449.656,75.829 441.989,75.329 434.5,74.5C 442.833,74.5 451.167,74.5 459.5,74.5C 459.5,76.8333 459.5,79.1667 459.5,81.5C 447.833,81.5 436.167,81.5 424.5,81.5C 424.5,66.5 424.5,51.5 424.5,36.5C 436.167,36.5 447.833,36.5 459.5,36.5C 459.5,39.5 459.5,42.5 459.5,45.5C 451.5,45.5 443.5,45.5 435.5,45.5 Z"
       id="path62" />
  </g>
  <g
     id="g63">
    <path
       style="opacity:1"
       fill="#4d1c21"
       d="M 659.5,69.5 C 660.496,69.4142 661.329,69.7476 662,70.5C 662.197,72.8609 663.364,74.5276 665.5,75.5C 666.246,76.7362 666.579,78.0695 666.5,79.5C 668.167,79.5 669.833,79.5 671.5,79.5C 671.599,76.7628 671.265,74.0961 670.5,71.5C 674.052,74.3865 676.385,78.0532 677.5,82.5C 673.774,82.8226 670.107,82.4892 666.5,81.5C 665.069,78.9613 663.403,76.6279 661.5,74.5C 661.107,72.7162 660.441,71.0495 659.5,69.5 Z"
       id="path63" />
  </g>
  <g
     id="g64">
    <path
       style="opacity:1"
       fill="#491111"
       d="M 687.5,47.5 C 689.797,48.739 690.13,50.5724 688.5,53C 689.93,54.8887 690.597,57.0554 690.5,59.5C 689.948,66.1282 689.948,72.7949 690.5,79.5C 700.167,79.5 709.833,79.5 719.5,79.5C 719.5,78.5 719.5,77.5 719.5,76.5C 712.159,76.6663 704.826,76.4997 697.5,76C 696.333,75.5 695.5,74.6667 695,73.5C 693.992,69.2291 694.492,65.2291 696.5,61.5C 702.702,62.4228 709.036,62.4228 715.5,61.5C 716.309,59.9291 716.643,58.2624 716.5,56.5C 709.978,56.8235 703.645,56.4902 697.5,55.5C 704.5,55.5 711.5,55.5 718.5,55.5C 718.868,58.5331 718.202,61.1998 716.5,63.5C 710.167,63.5 703.833,63.5 697.5,63.5C 696.518,66.9619 696.185,70.6286 696.5,74.5C 704.833,74.5 713.167,74.5 721.5,74.5C 721.5,76.8333 721.5,79.1667 721.5,81.5C 710.167,81.5 698.833,81.5 687.5,81.5C 687.5,70.1667 687.5,58.8333 687.5,47.5 Z"
       id="path64" />
  </g>
  <g
     id="g65">
    <path
       style="opacity:1"
       fill="#7f5d61"
       d="M 459.5,74.5 C 459.833,74.5 460.167,74.5 460.5,74.5C 460.5,77.1667 460.5,79.8333 460.5,82.5C 448.322,82.8284 436.322,82.4951 424.5,81.5C 436.167,81.5 447.833,81.5 459.5,81.5C 459.5,79.1667 459.5,76.8333 459.5,74.5 Z"
       id="path65" />
  </g>
  <g
     id="g66">
    <path
       style="opacity:1"
       fill="#7a5556"
       d="M 487.5,79.5 C 487.833,79.5 488.167,79.5 488.5,79.5C 496.433,81.4684 504.766,82.135 513.5,81.5C 505.016,82.493 496.349,82.8264 487.5,82.5C 487.5,81.5 487.5,80.5 487.5,79.5 Z"
       id="path66" />
  </g>
  <g
     id="g67">
    <path
       style="opacity:1"
       fill="#78595a"
       d="M 543.5,36.5 C 543.5,39.1667 543.5,41.8333 543.5,44.5C 543.5,56.1667 543.5,67.8333 543.5,79.5C 554.785,81.4784 566.452,82.1451 578.5,81.5C 566.678,82.4951 554.678,82.8284 542.5,82.5C 542.17,66.9909 542.504,51.6576 543.5,36.5 Z"
       id="path67" />
  </g>
  <g
     id="g68">
    <path
       style="opacity:1"
       fill="#744b4d"
       d="M 721.5,74.5 C 721.833,74.5 722.167,74.5 722.5,74.5C 722.5,77.1667 722.5,79.8333 722.5,82.5C 710.833,82.5 699.167,82.5 687.5,82.5C 687.5,82.1667 687.5,81.8333 687.5,81.5C 698.833,81.5 710.167,81.5 721.5,81.5C 721.5,79.1667 721.5,76.8333 721.5,74.5 Z"
       id="path68" />
  </g>
  <g
     id="g69">
    <path
       style="opacity:1"
       fill="#7b4f52"
       d="M 766.5,74.5 C 767.473,76.9479 767.806,79.6146 767.5,82.5C 755.322,82.8284 743.322,82.4951 731.5,81.5C 743.167,81.5 754.833,81.5 766.5,81.5C 766.5,79.1667 766.5,76.8333 766.5,74.5 Z"
       id="path69" />
  </g>
  <g
     id="g70">
    <path
       style="opacity:1"
       fill="#a68a8a"
       d="M 354.5,102.5 C 349.797,102.437 345.13,102.771 340.5,103.5C 343.017,102.027 345.85,101.36 349,101.5C 351.033,101.506 352.866,101.839 354.5,102.5 Z"
       id="path70" />
  </g>
  <g
     id="g71">
    <path
       style="opacity:1"
       fill="#592e2e"
       d="M 462.5,107.5 C 460.076,106.97 457.743,106.136 455.5,105C 447.507,104.5 439.507,104.334 431.5,104.5C 431.5,118.833 431.5,133.167 431.5,147.5C 433.591,147.682 435.591,147.348 437.5,146.5C 437.896,142.737 438.896,139.403 440.5,136.5C 440.666,140.514 440.499,144.514 440,148.5C 436.606,149.456 433.106,149.789 429.5,149.5C 429.5,133.833 429.5,118.167 429.5,102.5C 438.173,102.334 446.84,102.5 455.5,103C 458.239,104.026 460.572,105.526 462.5,107.5 Z"
       id="path71" />
  </g>
  <g
     id="g72">
    <path
       style="opacity:1"
       fill="#4d1816"
       d="M 354.5,102.5 C 359.043,103.769 363.376,105.603 367.5,108C 368.774,108.977 368.774,109.811 367.5,110.5C 360.567,104.78 352.567,102.947 343.5,105C 341.231,107.023 338.564,107.856 335.5,107.5C 335.5,109.5 335.5,111.5 335.5,113.5C 337.737,112.551 340.071,111.884 342.5,111.5C 339.726,114.26 337.392,117.26 335.5,120.5C 335.492,117.455 335.159,114.455 334.5,111.5C 332.833,111.5 331.167,111.5 329.5,111.5C 332.041,107.293 335.708,104.627 340.5,103.5C 345.13,102.771 349.797,102.437 354.5,102.5 Z"
       id="path72" />
  </g>
  <g
     id="g73">
    <path
       style="opacity:1"
       fill="#601212"
       d="M 367.5,110.5 C 366.452,112.613 364.952,114.28 363,115.5C 361.075,113.915 358.909,112.748 356.5,112C 351.845,111.501 347.179,111.334 342.5,111.5C 340.071,111.884 337.737,112.551 335.5,113.5C 335.5,111.5 335.5,109.5 335.5,107.5C 338.564,107.856 341.231,107.023 343.5,105C 352.567,102.947 360.567,104.78 367.5,110.5 Z"
       id="path73" />
  </g>
  <g
     id="g74">
    <path
       style="opacity:1"
       fill="#5e110f"
       d="M 462.5,107.5 C 463.167,107.5 463.5,107.833 463.5,108.5C 463.849,112.382 464.515,116.215 465.5,120C 464.909,123.527 464.242,127.027 463.5,130.5C 461.143,130.337 458.81,130.503 456.5,131C 455.663,132.011 455.33,133.178 455.5,134.5C 450.056,133.892 445.056,134.558 440.5,136.5C 438.896,139.403 437.896,142.737 437.5,146.5C 435.591,147.348 433.591,147.682 431.5,147.5C 431.5,133.167 431.5,118.833 431.5,104.5C 439.507,104.334 447.507,104.5 455.5,105C 457.743,106.136 460.076,106.97 462.5,107.5 Z"
       id="path74" />
  </g>
  <g
     id="g75">
    <path
       style="opacity:1"
       fill="#fbfafa"
       d="M 241.5,109.5 C 242.338,109.842 242.672,110.508 242.5,111.5C 242.333,126.504 242.5,141.504 243,156.5C 244.943,157.807 246.777,157.807 248.5,156.5C 249.255,153.947 249.922,151.28 250.5,148.5C 252.857,148.337 255.19,148.503 257.5,149C 258.939,152.246 260.272,155.579 261.5,159C 262.635,159.749 263.635,159.583 264.5,158.5C 265.794,155.163 267.96,152.83 271,151.5C 272.711,151.439 274.044,152.106 275,153.5C 274.351,158.822 276.517,161.655 281.5,162C 282.252,161.329 282.586,160.496 282.5,159.5C 282.511,157.983 283.177,156.816 284.5,156C 287.099,155.231 289.599,155.398 292,156.5C 292.828,171.197 292.494,185.864 291,200.5C 290.362,203.764 289.196,206.764 287.5,209.5C 285.833,210.5 284.5,211.833 283.5,213.5C 282.527,215.948 282.194,218.615 282.5,221.5C 265.833,221.5 249.167,221.5 232.5,221.5C 232.664,218.813 232.497,216.146 232,213.5C 226.388,205.915 220.555,198.582 214.5,191.5C 210.516,181.897 206.516,172.23 202.5,162.5C 202.712,160.112 204.045,159.112 206.5,159.5C 209.218,159.695 211.551,160.695 213.5,162.5C 215.074,167.32 217.407,171.653 220.5,175.5C 221.026,177.23 222.026,178.564 223.5,179.5C 223.47,180.497 223.97,181.164 225,181.5C 227.581,180.583 229.914,179.249 232,177.5C 232.168,154.996 232.668,132.663 233.5,110.5C 236.096,109.735 238.763,109.401 241.5,109.5 Z"
       id="path75" />
  </g>
  <g
     id="g76">
    <path
       style="opacity:1"
       fill="#f4f1ef"
       d="M 439.5,111.5 C 444.717,111.242 449.884,111.575 455,112.5C 458.816,115.864 459.483,119.864 457,124.5C 456.097,125.701 454.931,126.535 453.5,127C 448.845,127.499 444.179,127.666 439.5,127.5C 439.5,122.167 439.5,116.833 439.5,111.5 Z"
       id="path76" />
  </g>
  <g
     id="g77">
    <path
       style="opacity:1"
       fill="#501d1d"
       d="M 423.5,147.5 C 420.038,148.482 416.371,148.815 412.5,148.5C 411.774,145.821 410.941,143.154 410,140.5C 409.25,139.874 408.416,139.374 407.5,139C 401.509,138.501 395.509,138.334 389.5,138.5C 395.987,137.346 402.654,137.179 409.5,138C 411.099,139.066 412.099,140.566 412.5,142.5C 413.325,143.386 414.325,143.719 415.5,143.5C 415.5,144.5 415.5,145.5 415.5,146.5C 417.346,146.778 418.68,146.111 419.5,144.5C 414.589,132.526 409.589,120.692 404.5,109C 403.068,106.064 400.735,104.564 397.5,104.5C 394.895,105.457 392.561,106.79 390.5,108.5C 390.84,106.321 391.84,104.488 393.5,103C 397.091,102.211 400.591,102.378 404,103.5C 410.758,118.02 417.258,132.686 423.5,147.5 Z"
       id="path77" />
  </g>
  <g
     id="g78">
    <path
       style="opacity:1"
       fill="#521f1e"
       d="M 463.5,108.5 C 468.754,112.082 470.587,117.082 469,123.5C 466.737,130.097 462.237,134.264 455.5,136C 450.511,136.499 445.511,136.666 440.5,136.5C 445.056,134.558 450.056,133.892 455.5,134.5C 455.33,133.178 455.663,132.011 456.5,131C 458.81,130.503 461.143,130.337 463.5,130.5C 464.242,127.027 464.909,123.527 465.5,120C 464.515,116.215 463.849,112.382 463.5,108.5 Z"
       id="path78" />
  </g>
  <g
     id="g79">
    <path
       style="opacity:1"
       fill="#441e1e"
       d="M 329.5,111.5 C 324.67,122.233 325.67,132.233 332.5,141.5C 332.376,142.107 332.043,142.44 331.5,142.5C 325.396,134.818 323.563,126.151 326,116.5C 326.697,114.416 327.864,112.749 329.5,111.5 Z"
       id="path79" />
  </g>
  <g
     id="g80">
    <path
       style="opacity:1"
       fill="#5b0205"
       d="M 90.5,79.5 C 90.9496,108.203 90.4496,136.87 89,165.5C 88.8323,136.664 88.3323,107.997 87.5,79.5C 87.5,63.5 87.5,47.5 87.5,31.5C 88.5,31.5 89.5,31.5 90.5,31.5C 90.5,47.5 90.5,63.5 90.5,79.5 Z"
       id="path80" />
  </g>
  <g
     id="g81">
    <path
       style="opacity:1"
       fill="#f8f7f6"
       d="M 92.5,27.5 C 158.834,27.3333 225.168,27.5 291.5,28C 292.823,28.8159 293.489,29.9826 293.5,31.5C 293.5,67.8333 293.5,104.167 293.5,140.5C 293.5,141.167 293.833,141.5 294.5,141.5C 294.586,142.496 294.252,143.329 293.5,144C 296.167,144.667 296.167,145.333 293.5,146C 294.308,146.308 294.975,146.808 295.5,147.5C 294.637,148.726 294.637,150.06 295.5,151.5C 293.205,149.769 290.705,148.436 288,147.5C 284.934,148.021 282.101,149.021 279.5,150.5C 278.781,148.112 277.115,146.612 274.5,146C 272.527,145.505 270.527,145.338 268.5,145.5C 267.183,145.821 265.849,146.154 264.5,146.5C 262.816,145.473 261.149,144.473 259.5,143.5C 259.389,142.883 259.056,142.383 258.5,142C 255.854,141.503 253.187,141.336 250.5,141.5C 250.666,131.161 250.5,120.828 250,110.5C 249.722,109.584 249.222,108.918 248.5,108.5C 244.73,101.477 239.063,99.6436 231.5,103C 229.598,104.73 227.931,106.563 226.5,108.5C 225.833,128.833 225.167,149.167 224.5,169.5C 221.401,161.565 215.901,156.232 208,153.5C 205.516,153.497 203.349,154.163 201.5,155.5C 197.082,156.83 195.415,159.83 196.5,164.5C 195.136,168.425 193.469,172.091 191.5,175.5C 159.5,175.5 127.5,175.5 95.5,175.5C 94.209,175.737 93.209,175.404 92.5,174.5C 92.5,125.833 92.5,77.1667 92.5,28.5C 92.5,28.1667 92.5,27.8333 92.5,27.5 Z"
       id="path81" />
  </g>
  <g
     id="g82">
    <path
       style="opacity:1"
       fill="#d7bcbc"
       d="M 167.5,94.5 C 168.167,94.5 168.5,94.8333 168.5,95.5C 167.177,98.9377 166.51,102.771 166.5,107C 166.667,110.833 166.833,114.667 167,118.5C 167.717,119.044 168.217,119.711 168.5,120.5C 167.504,120.586 166.671,120.252 166,119.5C 165.833,115.333 165.667,111.167 165.5,107C 165.509,102.443 166.175,98.2762 167.5,94.5 Z"
       id="path82" />
  </g>
  <g
     id="g83">
    <path
       style="opacity:1"
       fill="#550409"
       d="M 151.5,94.5 C 151.5,94.8333 151.5,95.1667 151.5,95.5C 150.669,107.993 150.169,120.66 150,133.5C 149.692,134.308 149.192,134.975 148.5,135.5C 147.167,120.833 147.167,106.167 148.5,91.5C 149.735,92.3398 150.735,93.3398 151.5,94.5 Z"
       id="path83" />
  </g>
  <g
     id="g84">
    <path
       style="opacity:1"
       fill="#a99490"
       d="M 125.5,41.5 C 174.33,40.5012 223.33,40.1678 272.5,40.5C 273.167,40.5 273.5,40.8333 273.5,41.5C 273.5,73.5 273.5,105.5 273.5,137.5C 272.502,105.671 272.168,73.671 272.5,41.5C 223.5,41.5 174.5,41.5 125.5,41.5 Z"
       id="path84" />
  </g>
  <g
     id="g85">
    <path
       style="opacity:1"
       fill="#4c1215"
       d="M 153.5,89.5 C 153.5,89.1667 153.5,88.8333 153.5,88.5C 156.216,88.6785 158.883,89.1785 161.5,90C 163.141,92.163 165.141,93.663 167.5,94.5C 166.175,98.2762 165.509,102.443 165.5,107C 165.667,111.167 165.833,115.333 166,119.5C 166.671,120.252 167.504,120.586 168.5,120.5C 171.658,122.551 174.992,124.217 178.5,125.5C 175.753,125.187 173.086,125.52 170.5,126.5C 176.502,128.59 182.502,130.59 188.5,132.5C 194.802,133.373 201.135,133.706 207.5,133.5C 207.5,132.167 207.5,130.833 207.5,129.5C 201.974,129.821 196.64,129.488 191.5,128.5C 200.577,128.704 209.577,128.037 218.5,126.5C 218.838,129.325 217.838,131.492 215.5,133C 199.737,136.04 184.404,134.706 169.5,129C 167.167,127.333 164.833,125.667 162.5,124C 160.859,122.871 159.859,121.371 159.5,119.5C 159.666,110.161 159.5,100.827 159,91.5C 158.617,90.944 158.117,90.6107 157.5,90.5C 156.167,90.1667 154.833,89.8333 153.5,89.5 Z"
       id="path85" />
  </g>
  <g
     id="g86">
    <path
       style="opacity:1"
       fill="#7a5554"
       d="M 151.5,88.5 C 152.167,88.5 152.833,88.5 153.5,88.5C 153.5,88.8333 153.5,89.1667 153.5,89.5C 152.833,104.833 152.167,120.167 151.5,135.5C 151.5,122.167 151.5,108.833 151.5,95.5C 151.5,95.1667 151.5,94.8333 151.5,94.5C 151.5,92.5 151.5,90.5 151.5,88.5 Z"
       id="path86" />
  </g>
  <g
     id="g87">
    <path
       style="opacity:1"
       fill="#530104"
       d="M 120.5,127.5 C 120.5,114.167 120.5,100.833 120.5,87.5C 121.331,73.6727 121.831,59.6727 122,45.5C 122.333,46.1667 122.667,46.8333 123,47.5C 123.833,84.8378 123.667,122.171 122.5,159.5C 121.833,148.674 121.167,138.008 120.5,127.5 Z"
       id="path87" />
  </g>
  <g
     id="g88">
    <path
       style="opacity:1"
       fill="#673f42"
       d="M 111.5,79.5 C 109.833,79.5 108.167,79.5 106.5,79.5C 106.5,94.5 106.5,109.5 106.5,124.5C 105.504,109.342 105.17,94.0091 105.5,78.5C 107.735,78.2053 109.735,78.5386 111.5,79.5 Z"
       id="path88" />
  </g>
  <g
     id="g89">
    <path
       style="opacity:1"
       fill="#5d0e14"
       d="M 143.5,77.5 C 144.058,78.7899 145.058,79.6232 146.5,80C 152.399,81.7177 158.065,83.8844 163.5,86.5C 168.804,91.3155 175.137,94.3155 182.5,95.5C 184.099,95.2322 185.432,95.5655 186.5,96.5C 186.369,97.3764 186.702,98.0431 187.5,98.5C 190.088,99.1936 192.421,100.36 194.5,102C 198.997,102.729 203.33,102.229 207.5,100.5C 207.5,101.833 207.5,103.167 207.5,104.5C 204.571,105.588 201.737,106.921 199,108.5C 188.802,104.267 178.636,99.9332 168.5,95.5C 168.5,94.8333 168.167,94.5 167.5,94.5C 165.141,93.663 163.141,92.163 161.5,90C 158.883,89.1785 156.216,88.6785 153.5,88.5C 152.833,88.5 152.167,88.5 151.5,88.5C 147.803,85.3178 143.469,83.1511 138.5,82C 137.833,80.6667 136.833,79.6667 135.5,79C 138.115,77.1673 140.782,76.6673 143.5,77.5 Z"
       id="path89" />
  </g>
  <g
     id="g90">
    <path
       style="opacity:1"
       fill="#541014"
       d="M 197.5,48.5 C 201.012,48.9236 204.345,49.9236 207.5,51.5C 224.698,58.9302 242.031,66.0969 259.5,73C 261.968,74.2162 263.968,75.8829 265.5,78C 264.846,79.987 263.513,81.3203 261.5,82C 243.4,89.2155 225.4,96.7155 207.5,104.5C 207.5,103.167 207.5,101.833 207.5,100.5C 203.33,102.229 198.997,102.729 194.5,102C 192.421,100.36 190.088,99.1936 187.5,98.5C 186.702,98.0431 186.369,97.3764 186.5,96.5C 189.93,97.7138 193.264,99.2138 196.5,101C 198.167,101.667 199.833,101.667 201.5,101C 218.843,93.3277 236.177,85.661 253.5,78C 235.356,70.3506 217.189,62.5172 199,54.5C 191.865,57.6531 184.698,60.6531 177.5,63.5C 175.076,63.8076 172.743,63.4742 170.5,62.5C 172.045,61.5481 173.712,61.2148 175.5,61.5C 175.5,60.5 175.5,59.5 175.5,58.5C 182.496,54.6729 189.829,51.3396 197.5,48.5 Z"
       id="path90" />
  </g>
  <g
     id="g91">
    <path
       style="opacity:1"
       fill="#c0b3b0"
       d="M 157.5,90.5 C 158.117,90.6107 158.617,90.944 159,91.5C 159.5,100.827 159.666,110.161 159.5,119.5C 158.785,109.963 158.118,100.296 157.5,90.5 Z"
       id="path91" />
  </g>
  <g
     id="g92">
    <path
       style="opacity:1"
       fill="#3f1212"
       d="M 273.5,41.5 C 274.332,72.3306 274.832,103.331 275,134.5C 275.853,136.125 276.853,136.458 278,135.5C 278.464,136.094 278.631,136.761 278.5,137.5C 276.833,137.5 275.167,137.5 273.5,137.5C 273.5,105.5 273.5,73.5 273.5,41.5 Z"
       id="path92" />
  </g>
  <g
     id="g93">
    <path
       style="opacity:1"
       fill="#3f0f11"
       d="M 272.5,40.5 C 223.33,40.1678 174.33,40.5012 125.5,41.5C 125.5,81.5 125.5,121.5 125.5,161.5C 124.501,121.337 124.168,81.0034 124.5,40.5C 173.833,39.1667 223.167,39.1667 272.5,40.5 Z"
       id="path93" />
  </g>
  <g
     id="g94">
    <path
       style="opacity:1"
       fill="#4c050a"
       d="M 111.5,79.5 C 111.5,94.5 111.5,109.5 111.5,124.5C 109.833,124.5 108.167,124.5 106.5,124.5C 106.5,109.5 106.5,94.5 106.5,79.5C 108.167,79.5 109.833,79.5 111.5,79.5 Z"
       id="path94" />
  </g>
  <g
     id="g95">
    <path
       style="opacity:1"
       fill="#521b1d"
       d="M 163.5,86.5 C 170.019,89.2611 176.352,92.2611 182.5,95.5C 175.137,94.3155 168.804,91.3155 163.5,86.5 Z"
       id="path95" />
  </g>
  <g
     id="g96">
    <path
       style="opacity:1"
       fill="#340503"
       d="M 119.5,47.5 C 120.496,60.6562 120.829,73.9895 120.5,87.5C 120.5,100.833 120.5,114.167 120.5,127.5C 120.171,140.344 120.505,153.011 121.5,165.5C 121.842,166.338 122.508,166.672 123.5,166.5C 123.158,167.338 122.492,167.672 121.5,167.5C 119.506,127.847 118.839,87.8473 119.5,47.5 Z"
       id="path96" />
  </g>
  <g
     id="g97">
    <path
       style="opacity:1"
       fill="#530908"
       d="M 276.5,36.5 C 278.164,66.6529 279.164,96.9862 279.5,127.5C 279.813,131.042 279.479,134.375 278.5,137.5C 278.631,136.761 278.464,136.094 278,135.5C 276.853,136.458 275.853,136.125 275,134.5C 274.832,103.331 274.332,72.3306 273.5,41.5C 273.5,40.8333 273.167,40.5 272.5,40.5C 223.167,39.1667 173.833,39.1667 124.5,40.5C 122.495,39.746 121.828,38.5793 122.5,37C 173.832,36.5 225.166,36.3333 276.5,36.5 Z"
       id="path97" />
  </g>
  <g
     id="g98">
    <path
       style="opacity:1"
       fill="#610105"
       d="M 276.5,45.5 C 277.664,73.6637 277.83,101.997 277,130.5C 275.858,116.232 275.358,101.899 275.5,87.5C 275.517,73.4569 275.85,59.4569 276.5,45.5 Z"
       id="path98" />
  </g>
  <g
     id="g99">
    <path
       style="opacity:1"
       fill="#51191b"
       d="M 175.5,58.5 C 175.5,59.5 175.5,60.5 175.5,61.5C 173.712,61.2148 172.045,61.5481 170.5,62.5C 172.743,63.4742 175.076,63.8076 177.5,63.5C 166.301,68.3481 154.968,73.0148 143.5,77.5C 140.782,76.6673 138.115,77.1673 135.5,79C 136.833,79.6667 137.833,80.6667 138.5,82C 143.469,83.1511 147.803,85.3178 151.5,88.5C 151.5,90.5 151.5,92.5 151.5,94.5C 150.735,93.3398 149.735,92.3398 148.5,91.5C 147.167,106.167 147.167,120.833 148.5,135.5C 149.192,134.975 149.692,134.308 150,133.5C 150.169,120.66 150.669,107.993 151.5,95.5C 151.5,108.833 151.5,122.167 151.5,135.5C 149.282,140.999 145.282,143.999 139.5,144.5C 138.787,140.273 140.454,137.606 144.5,136.5C 145.499,119.513 145.833,102.513 145.5,85.5C 140.247,84.7807 135.914,82.4473 132.5,78.5C 132.529,76.9707 133.196,75.804 134.5,75C 148.013,68.9031 161.679,63.4031 175.5,58.5 Z"
       id="path99" />
  </g>
  <g
     id="g100">
    <path
       style="opacity:1"
       fill="#faf9f8"
       d="M 186.5,96.5 C 185.432,95.5655 184.099,95.2322 182.5,95.5C 176.352,92.2611 170.019,89.2611 163.5,86.5C 158.065,83.8844 152.399,81.7177 146.5,80C 145.058,79.6232 144.058,78.7899 143.5,77.5C 154.968,73.0148 166.301,68.3481 177.5,63.5C 184.698,60.6531 191.865,57.6531 199,54.5C 217.189,62.5172 235.356,70.3506 253.5,78C 236.177,85.661 218.843,93.3277 201.5,101C 199.833,101.667 198.167,101.667 196.5,101C 193.264,99.2138 189.93,97.7138 186.5,96.5 Z"
       id="path100" />
  </g>
  <g
     id="g101">
    <path
       style="opacity:1"
       fill="#551617"
       d="M 119.5,35.5 C 120.167,35.5 120.833,35.5 121.5,35.5C 173.336,35.1678 225.003,35.5011 276.5,36.5C 225.166,36.3333 173.832,36.5 122.5,37C 121.828,38.5793 122.495,39.746 124.5,40.5C 124.168,81.0034 124.501,121.337 125.5,161.5C 146.5,161.5 167.5,161.5 188.5,161.5C 188.5,163.833 188.5,166.167 188.5,168.5C 165.994,168.831 143.66,168.497 121.5,167.5C 122.492,167.672 123.158,167.338 123.5,166.5C 144.167,166.5 164.833,166.5 185.5,166.5C 185.5,165.5 185.5,164.5 185.5,163.5C 164.787,163.822 144.121,163.488 123.5,162.5C 122.081,163.005 121.415,164.005 121.5,165.5C 120.505,153.011 120.171,140.344 120.5,127.5C 121.167,138.008 121.833,148.674 122.5,159.5C 123.667,122.171 123.833,84.8378 123,47.5C 122.667,46.8333 122.333,46.1667 122,45.5C 121.831,59.6727 121.331,73.6727 120.5,87.5C 120.829,73.9895 120.496,60.6562 119.5,47.5C 119.5,43.5 119.5,39.5 119.5,35.5 Z"
       id="path101" />
  </g>
  <g
     id="g102">
    <path
       style="opacity:1"
       fill="#d9bec2"
       d="M 197.5,48.5 C 200.84,47.4522 204.006,47.4522 207,48.5C 207.483,49.448 207.649,50.448 207.5,51.5C 204.345,49.9236 201.012,48.9236 197.5,48.5 Z"
       id="path102" />
  </g>
  <g
     id="g103">
    <path
       style="opacity:1"
       fill="#50221c"
       d="M 121.5,35.5 C 171.997,34.5011 222.664,34.1678 273.5,34.5C 275.262,34.3573 276.929,34.6906 278.5,35.5C 279.5,66.1594 279.833,96.8261 279.5,127.5C 279.164,96.9862 278.164,66.6529 276.5,36.5C 225.003,35.5011 173.336,35.1678 121.5,35.5 Z"
       id="path103" />
  </g>
  <g
     id="g104">
    <path
       style="opacity:1"
       fill="#edd3cd"
       d="M 273.5,34.5 C 222.664,34.1678 171.997,34.5011 121.5,35.5C 120.833,35.5 120.167,35.5 119.5,35.5C 119.611,34.8826 119.944,34.3826 120.5,34C 171.668,33.1683 222.668,33.335 273.5,34.5 Z"
       id="path104" />
  </g>
  <g
     id="g105">
    <path
       style="opacity:1"
       fill="#590610"
       d="M 178.5,125.5 C 182.706,126.968 187.039,127.968 191.5,128.5C 196.64,129.488 201.974,129.821 207.5,129.5C 207.5,130.833 207.5,132.167 207.5,133.5C 201.135,133.706 194.802,133.373 188.5,132.5C 182.502,130.59 176.502,128.59 170.5,126.5C 173.086,125.52 175.753,125.187 178.5,125.5 Z"
       id="path105" />
  </g>
  <g
     id="g106">
    <path
       style="opacity:1"
       fill="#896966"
       d="M 368.5,125.5 C 365.5,125.5 362.5,125.5 359.5,125.5C 359.818,130.032 359.485,134.366 358.5,138.5C 358.5,133.833 358.5,129.167 358.5,124.5C 362.042,124.187 365.375,124.521 368.5,125.5 Z"
       id="path106" />
  </g>
  <g
     id="g107">
    <path
       style="opacity:1"
       fill="#e7d3cc"
       d="M 248.5,108.5 C 249.222,108.918 249.722,109.584 250,110.5C 250.5,120.828 250.666,131.161 250.5,141.5C 249.811,132.071 249.144,122.071 248.5,111.5C 248.5,110.5 248.5,109.5 248.5,108.5 Z"
       id="path107" />
  </g>
  <g
     id="g108">
    <path
       style="opacity:1"
       fill="#d9bebc"
       d="M 226.5,108.5 C 226.5,129.167 226.5,149.833 226.5,170.5C 226.5,171.167 226.167,171.5 225.5,171.5C 225.167,170.833 224.833,170.167 224.5,169.5C 225.167,149.167 225.833,128.833 226.5,108.5 Z"
       id="path108" />
  </g>
  <g
     id="g109">
    <path
       style="opacity:1"
       fill="#5c0a09"
       d="M 329.5,111.5 C 331.167,111.5 332.833,111.5 334.5,111.5C 335.159,114.455 335.492,117.455 335.5,120.5C 335.5,120.833 335.5,121.167 335.5,121.5C 333.685,122.791 332.685,124.624 332.5,127C 333.972,131.418 335.639,135.752 337.5,140C 340.177,140.249 342.51,141.249 344.5,143C 349.155,143.499 353.821,143.666 358.5,143.5C 360.262,138.404 360.929,133.07 360.5,127.5C 362.167,127.5 363.833,127.5 365.5,127.5C 365.666,131.514 365.499,135.514 365,139.5C 362.524,145.739 357.857,148.073 351,146.5C 344.966,146.56 339.133,145.56 333.5,143.5C 332.508,143.672 331.842,143.338 331.5,142.5C 332.043,142.44 332.376,142.107 332.5,141.5C 325.67,132.233 324.67,122.233 329.5,111.5 Z"
       id="path109" />
  </g>
  <g
     id="g110">
    <path
       style="opacity:1"
       fill="#51191c"
       d="M 389.5,112.5 C 388.253,116.715 387.42,121.048 387,125.5C 386.29,126.973 385.124,127.64 383.5,127.5C 383.657,128.873 383.49,130.207 383,131.5C 380.689,135.685 378.522,140.018 376.5,144.5C 376.709,145.086 377.043,145.586 377.5,146C 379.473,146.495 381.473,146.662 383.5,146.5C 383.077,144.219 383.744,142.552 385.5,141.5C 385.167,143.5 384.833,145.5 384.5,147.5C 380.438,149.176 376.771,148.842 373.5,146.5C 377.877,134.696 383.21,123.363 389.5,112.5 Z"
       id="path110" />
  </g>
  <g
     id="g111">
    <path
       style="opacity:1"
       fill="#593433"
       d="M 248.5,111.5 C 249.144,122.071 249.811,132.071 250.5,141.5C 253.187,141.336 255.854,141.503 258.5,142C 259.056,142.383 259.389,142.883 259.5,143.5C 255.629,143.815 251.962,143.482 248.5,142.5C 248.5,132.167 248.5,121.833 248.5,111.5 Z"
       id="path111" />
  </g>
  <g
     id="g112">
    <path
       style="opacity:1"
       fill="#491515"
       d="M 335.5,121.5 C 335.059,138.114 342.725,143.781 358.5,138.5C 359.485,134.366 359.818,130.032 359.5,125.5C 362.5,125.5 365.5,125.5 368.5,125.5C 368.666,131.509 368.499,137.509 368,143.5C 358.91,149.499 349.076,150.999 338.5,148C 336.382,146.951 334.716,145.451 333.5,143.5C 339.133,145.56 344.966,146.56 351,146.5C 357.857,148.073 362.524,145.739 365,139.5C 365.499,135.514 365.666,131.514 365.5,127.5C 363.833,127.5 362.167,127.5 360.5,127.5C 360.929,133.07 360.262,138.404 358.5,143.5C 353.821,143.666 349.155,143.499 344.5,143C 342.51,141.249 340.177,140.249 337.5,140C 335.639,135.752 333.972,131.418 332.5,127C 332.685,124.624 333.685,122.791 335.5,121.5 Z"
       id="path112" />
  </g>
  <g
     id="g113">
    <path
       style="opacity:1"
       fill="#492928"
       d="M 242.5,111.5 C 243.167,125.833 243.833,140.167 244.5,154.5C 245.833,155.167 247.167,155.833 248.5,156.5C 246.777,157.807 244.943,157.807 243,156.5C 242.5,141.504 242.333,126.504 242.5,111.5 Z"
       id="path113" />
  </g>
  <g
     id="g114">
    <path
       style="opacity:1"
       fill="#5e0f11"
       d="M 389.5,138.5 C 387.97,139.211 386.637,140.211 385.5,141.5C 383.744,142.552 383.077,144.219 383.5,146.5C 381.473,146.662 379.473,146.495 377.5,146C 377.043,145.586 376.709,145.086 376.5,144.5C 378.522,140.018 380.689,135.685 383,131.5C 383.49,130.207 383.657,128.873 383.5,127.5C 385.124,127.64 386.29,126.973 387,125.5C 387.42,121.048 388.253,116.715 389.5,112.5C 390.234,111.292 390.567,109.959 390.5,108.5C 392.561,106.79 394.895,105.457 397.5,104.5C 400.735,104.564 403.068,106.064 404.5,109C 409.589,120.692 414.589,132.526 419.5,144.5C 418.68,146.111 417.346,146.778 415.5,146.5C 415.5,145.5 415.5,144.5 415.5,143.5C 414.325,143.719 413.325,143.386 412.5,142.5C 412.099,140.566 411.099,139.066 409.5,138C 402.654,137.179 395.987,137.346 389.5,138.5 Z"
       id="path114" />
  </g>
  <g
     id="g115">
    <path
       style="opacity:1"
       fill="#9f7877"
       d="M 391.5,128.5 C 393.223,129.8 395.39,130.467 398,130.5C 400.361,130.496 402.527,130.163 404.5,129.5C 405.043,129.56 405.376,129.893 405.5,130.5C 400.544,131.494 395.544,131.827 390.5,131.5C 390.263,130.209 390.596,129.209 391.5,128.5 Z"
       id="path115" />
  </g>
  <g
     id="g116">
    <path
       style="opacity:1"
       fill="#f4f0ee"
       d="M 404.5,129.5 C 402.527,130.163 400.361,130.496 398,130.5C 395.39,130.467 393.223,129.8 391.5,128.5C 393.634,123.445 395.967,118.445 398.5,113.5C 399.086,113.709 399.586,114.043 400,114.5C 401.527,119.537 403.027,124.537 404.5,129.5 Z"
       id="path116" />
  </g>
  <g
     id="g117">
    <path
       style="opacity:1"
       fill="#ab8e93"
       d="M 373.5,146.5 C 376.771,148.842 380.438,149.176 384.5,147.5C 380.971,149.423 376.971,150.089 372.5,149.5C 372.263,148.209 372.596,147.209 373.5,146.5 Z"
       id="path117" />
  </g>
  <g
     id="g118">
    <path
       style="opacity:1"
       fill="#9e8286"
       d="M 423.5,147.5 C 424.043,147.56 424.376,147.893 424.5,148.5C 420.351,149.809 416.351,149.809 412.5,148.5C 416.371,148.815 420.038,148.482 423.5,147.5 Z"
       id="path118" />
  </g>
  <g
     id="g119">
    <path
       style="opacity:1"
       fill="#5e0a0e"
       d="M 248.5,142.5 C 251.962,143.482 255.629,143.815 259.5,143.5C 261.149,144.473 262.816,145.473 264.5,146.5C 265.849,146.154 267.183,145.821 268.5,145.5C 268.923,146.265 269.257,147.098 269.5,148C 267.302,150.857 265.136,153.691 263,156.5C 262.228,156.355 261.561,156.022 261,155.5C 260.724,147.314 257.224,144.98 250.5,148.5C 249.922,151.28 249.255,153.947 248.5,156.5C 247.167,155.833 245.833,155.167 244.5,154.5C 244.877,149.677 245.71,145.011 247,140.5C 247.278,141.416 247.778,142.082 248.5,142.5 Z"
       id="path119" />
  </g>
  <g
     id="g120">
    <path
       style="opacity:1"
       fill="#4b1618"
       d="M 268.5,145.5 C 270.527,145.338 272.527,145.505 274.5,146C 277.115,146.612 278.781,148.112 279.5,150.5C 277.732,153.162 277.065,156.162 277.5,159.5C 279.167,159.5 280.833,159.5 282.5,159.5C 282.586,160.496 282.252,161.329 281.5,162C 276.517,161.655 274.351,158.822 275,153.5C 274.044,152.106 272.711,151.439 271,151.5C 267.96,152.83 265.794,155.163 264.5,158.5C 263.635,159.583 262.635,159.749 261.5,159C 260.272,155.579 258.939,152.246 257.5,149C 255.19,148.503 252.857,148.337 250.5,148.5C 257.224,144.98 260.724,147.314 261,155.5C 261.561,156.022 262.228,156.355 263,156.5C 265.136,153.691 267.302,150.857 269.5,148C 269.257,147.098 268.923,146.265 268.5,145.5 Z"
       id="path120" />
  </g>
  <g
     id="g121">
    <path
       style="opacity:1"
       fill="#461e24"
       d="M 146.5,148.5 C 151.5,147.5 153.5,149.5 152.5,154.5C 146.591,155.926 144.591,153.926 146.5,148.5 Z"
       id="path121" />
  </g>
  <g
     id="g122">
    <path
       style="opacity:1"
       fill="#48080a"
       d="M 248.5,108.5 C 248.5,109.5 248.5,110.5 248.5,111.5C 248.5,121.833 248.5,132.167 248.5,142.5C 247.778,142.082 247.278,141.416 247,140.5C 245.71,145.011 244.877,149.677 244.5,154.5C 243.833,140.167 243.167,125.833 242.5,111.5C 242.672,110.508 242.338,109.842 241.5,109.5C 240.551,108.848 239.385,108.514 238,108.5C 235.992,108.307 234.492,108.974 233.5,110.5C 232.668,132.663 232.168,154.996 232,177.5C 229.914,179.249 227.581,180.583 225,181.5C 223.97,181.164 223.47,180.497 223.5,179.5C 229.481,178.858 231.314,175.858 229,170.5C 228.667,171.167 228.333,171.833 228,172.5C 227.722,171.584 227.222,170.918 226.5,170.5C 226.5,149.833 226.5,129.167 226.5,108.5C 227.931,106.563 229.598,104.73 231.5,103C 239.063,99.6436 244.73,101.477 248.5,108.5 Z"
       id="path122" />
  </g>
  <g
     id="g123">
    <path
       style="opacity:1"
       fill="#9f827c"
       d="M 241.5,109.5 C 238.763,109.401 236.096,109.735 233.5,110.5C 234.492,108.974 235.992,108.307 238,108.5C 239.385,108.514 240.551,108.848 241.5,109.5 Z"
       id="path123" />
  </g>
  <g
     id="g124">
    <path
       style="opacity:1"
       fill="#581817"
       d="M 295.5,151.5 C 296.5,151.833 297.167,152.5 297.5,153.5C 298.464,166.784 298.797,180.117 298.5,193.5C 298.032,202.251 295.032,209.917 289.5,216.5C 288.848,217.449 288.514,218.615 288.5,220C 290.01,224.382 290.677,228.882 290.5,233.5C 289.5,233.5 288.5,233.5 287.5,233.5C 287.663,231.143 287.497,228.81 287,226.5C 286.097,225.299 284.931,224.465 283.5,224C 284.293,220.589 284.793,217.089 285,213.5C 286.706,212.692 287.539,211.359 287.5,209.5C 289.196,206.764 290.362,203.764 291,200.5C 292.494,185.864 292.828,171.197 292,156.5C 289.599,155.398 287.099,155.231 284.5,156C 283.177,156.816 282.511,157.983 282.5,159.5C 280.833,159.5 279.167,159.5 277.5,159.5C 277.065,156.162 277.732,153.162 279.5,150.5C 282.101,149.021 284.934,148.021 288,147.5C 290.705,148.436 293.205,149.769 295.5,151.5 Z"
       id="path124" />
  </g>
  <g
     id="g125">
    <path
       style="opacity:1"
       fill="#580e12"
       d="M 201.5,155.5 C 208.608,153.891 213.608,156.225 216.5,162.5C 215.5,162.5 214.5,162.5 213.5,162.5C 211.551,160.695 209.218,159.695 206.5,159.5C 204.045,159.112 202.712,160.112 202.5,162.5C 206.516,172.23 210.516,181.897 214.5,191.5C 214.719,192.675 214.386,193.675 213.5,194.5C 208.429,189.167 205.429,182.833 204.5,175.5C 203.5,175.5 202.5,175.5 201.5,175.5C 200.027,171.749 198.36,168.083 196.5,164.5C 195.415,159.83 197.082,156.83 201.5,155.5 Z"
       id="path125" />
  </g>
  <g
     id="g126">
    <path
       style="opacity:1"
       fill="#4d1418"
       d="M 224.5,169.5 C 224.833,170.167 225.167,170.833 225.5,171.5C 225.44,172.043 225.107,172.376 224.5,172.5C 223.833,171.833 223.167,171.167 222.5,170.5C 221.678,172.139 221.011,173.805 220.5,175.5C 217.407,171.653 215.074,167.32 213.5,162.5C 214.5,162.5 215.5,162.5 216.5,162.5C 213.608,156.225 208.608,153.891 201.5,155.5C 203.349,154.163 205.516,153.497 208,153.5C 215.901,156.232 221.401,161.565 224.5,169.5 Z"
       id="path126" />
  </g>
  <g
     id="g127">
    <path
       style="opacity:1"
       fill="#5b010a"
       d="M 123.5,166.5 C 122.508,166.672 121.842,166.338 121.5,165.5C 121.415,164.005 122.081,163.005 123.5,162.5C 144.121,163.488 164.787,163.822 185.5,163.5C 185.5,164.5 185.5,165.5 185.5,166.5C 164.833,166.5 144.167,166.5 123.5,166.5 Z"
       id="path127" />
  </g>
  <g
     id="g128">
    <path
       style="opacity:1"
       fill="#694138"
       d="M 297.5,153.5 C 298.117,153.611 298.617,153.944 299,154.5C 299.827,167.673 299.66,180.673 298.5,193.5C 298.797,180.117 298.464,166.784 297.5,153.5 Z"
       id="path128" />
  </g>
  <g
     id="g129">
    <path
       style="opacity:1"
       fill="#5c090c"
       d="M 225.5,171.5 C 226.167,171.5 226.5,171.167 226.5,170.5C 227.222,170.918 227.722,171.584 228,172.5C 228.333,171.833 228.667,171.167 229,170.5C 231.314,175.858 229.481,178.858 223.5,179.5C 222.026,178.564 221.026,177.23 220.5,175.5C 221.011,173.805 221.678,172.139 222.5,170.5C 223.167,171.167 223.833,171.833 224.5,172.5C 225.107,172.376 225.44,172.043 225.5,171.5 Z"
       id="path129" />
  </g>
  <g
     id="g130">
    <path
       style="opacity:1"
       fill="#4f1718"
       d="M 95.5,175.5 C 127.5,175.5 159.5,175.5 191.5,175.5C 191.5,176.167 191.5,176.833 191.5,177.5C 159.149,178.159 127.149,177.493 95.5,175.5 Z"
       id="path130" />
  </g>
  <g
     id="g131">
    <path
       style="opacity:1"
       fill="#550b0e"
       d="M 87.5,79.5 C 88.3323,107.997 88.8323,136.664 89,165.5C 90.4496,136.87 90.9496,108.203 90.5,79.5C 91.1667,111.167 91.8333,142.833 92.5,174.5C 93.209,175.404 94.209,175.737 95.5,175.5C 127.149,177.493 159.149,178.159 191.5,177.5C 192.833,178.833 192.833,180.167 191.5,181.5C 159.493,181.833 127.493,181.5 95.5,180.5C 92.6099,179.56 90.2766,177.893 88.5,175.5C 87.5001,143.507 87.1668,111.507 87.5,79.5 Z"
       id="path131" />
  </g>
  <g
     id="g132">
    <path
       style="opacity:1"
       fill="#610708"
       d="M 294.5,159.5 C 295.5,159.5 296.5,159.5 297.5,159.5C 297.667,170.172 297.5,180.839 297,191.5C 294.923,196.566 294.089,201.899 294.5,207.5C 293.5,207.5 292.5,207.5 291.5,207.5C 294.163,191.633 295.163,175.633 294.5,159.5 Z"
       id="path132" />
  </g>
  <g
     id="g133">
    <path
       style="opacity:1"
       fill="#5d0b12"
       d="M 223.5,224.5 C 223.5,223.833 223.833,223.5 224.5,223.5C 225.5,223.5 226.5,223.5 227.5,223.5C 227.18,220.102 227.513,216.768 228.5,213.5C 230.815,216.435 231.815,219.769 231.5,223.5C 247.837,223.333 264.17,223.5 280.5,224C 263.6,225.69 246.6,226.69 229.5,227C 227.963,228.11 227.297,229.61 227.5,231.5C 226.178,231.33 225.011,231.663 224,232.5C 223.503,229.854 223.336,227.187 223.5,224.5 Z"
       id="path133" />
  </g>
  <g
     id="g134">
    <path
       style="opacity:1"
       fill="#4b1418"
       d="M 201.5,175.5 C 202.5,175.5 203.5,175.5 204.5,175.5C 205.429,182.833 208.429,189.167 213.5,194.5C 214.386,193.675 214.719,192.675 214.5,191.5C 220.555,198.582 226.388,205.915 232,213.5C 232.497,216.146 232.664,218.813 232.5,221.5C 249.325,222.497 266.325,222.83 283.5,222.5C 283.5,219.5 283.5,216.5 283.5,213.5C 284.5,211.833 285.833,210.5 287.5,209.5C 287.539,211.359 286.706,212.692 285,213.5C 284.793,217.089 284.293,220.589 283.5,224C 284.931,224.465 286.097,225.299 287,226.5C 287.497,228.81 287.663,231.143 287.5,233.5C 288.5,233.5 289.5,233.5 290.5,233.5C 290.677,228.882 290.01,224.382 288.5,220C 288.514,218.615 288.848,217.449 289.5,216.5C 289.664,219.817 290.664,222.817 292.5,225.5C 292.664,228.187 292.497,230.854 292,233.5C 290.644,234.38 289.144,234.714 287.5,234.5C 286.262,232.786 285.595,230.786 285.5,228.5C 266.83,228.333 248.164,228.5 229.5,229C 228.594,230.699 228.261,232.533 228.5,234.5C 226.533,234.739 224.699,234.406 223,233.5C 222.195,230.304 222.362,227.304 223.5,224.5C 223.336,227.187 223.503,229.854 224,232.5C 225.011,231.663 226.178,231.33 227.5,231.5C 227.297,229.61 227.963,228.11 229.5,227C 246.6,226.69 263.6,225.69 280.5,224C 264.17,223.5 247.837,223.333 231.5,223.5C 231.815,219.769 230.815,216.435 228.5,213.5C 227.513,216.768 227.18,220.102 227.5,223.5C 226.5,223.5 225.5,223.5 224.5,223.5C 226.333,221.504 226.833,219.171 226,216.5C 220.245,207.99 214.245,199.657 208,191.5C 205.102,186.445 202.935,181.112 201.5,175.5 Z"
       id="path134" />
  </g>
  <g
     id="g135">
    <path
       style="opacity:1"
       fill="#8e7172"
       d="M 283.5,213.5 C 283.5,216.5 283.5,219.5 283.5,222.5C 266.325,222.83 249.325,222.497 232.5,221.5C 249.167,221.5 265.833,221.5 282.5,221.5C 282.194,218.615 282.527,215.948 283.5,213.5 Z"
       id="path135" />
  </g>
  <g
     id="g136">
    <path
       style="opacity:1"
       fill="#ba9b9d"
       d="M 292.5,225.5 C 293.638,228.304 293.805,231.304 293,234.5C 291.057,235.807 289.223,235.807 287.5,234.5C 289.144,234.714 290.644,234.38 292,233.5C 292.497,230.854 292.664,228.187 292.5,225.5 Z"
       id="path136" />
  </g>
</svg>
